<?xml version="1.0" encoding="UTF-8"?>
<svg version="1.1" xmlns="http://www.w3.org/2000/svg" width="240" height="240">
<path d="M0 0 C79.2 0 158.4 0 240 0 C240 79.2 240 158.4 240 240 C160.8 240 81.6 240 0 240 C0 160.8 0 81.6 0 0 Z " fill="#18171A" transform="translate(0,0)"/>
<path d="M0 0 C4.1117256 -0.02465746 8.22342278 -0.04283959 12.33520508 -0.05493164 C13.73495228 -0.0599708 15.1346942 -0.06680216 16.53442383 -0.07543945 C18.54245777 -0.0875232 20.55052957 -0.09269807 22.55859375 -0.09765625 C24.37315063 -0.10551147 24.37315063 -0.10551147 26.22436523 -0.11352539 C29 0 29 0 30 1 C30.10017717 2.95496694 30.13081283 4.91356285 30.1328125 6.87109375 C30.13474609 8.69350586 30.13474609 8.69350586 30.13671875 10.55273438 C30.13285156 11.83470703 30.12898438 13.11667969 30.125 14.4375 C30.13080078 16.30825195 30.13080078 16.30825195 30.13671875 18.21679688 C30.11504048 38.84367446 30.11504048 38.84367446 25.5625 44.125 C24.94503906 44.87007812 24.32757813 45.61515625 23.69140625 46.3828125 C22 48 22 48 20 48 C20 48.66 20 49.32 20 50 C20.5775 50.226875 21.155 50.45375 21.75 50.6875 C25.44802846 52.84468327 27.43755465 55.68249103 29.10498047 59.58837891 C30.24117366 63.9193019 30.24980646 67.88045776 30.1953125 72.3359375 C30.1924826 73.21528961 30.18965271 74.09464172 30.18673706 75.00064087 C30.17559712 77.79223594 30.15050411 80.5835029 30.125 83.375 C30.1149622 85.27473493 30.10583775 87.17447492 30.09765625 89.07421875 C30.07567806 93.71627107 30.0411911 98.35808002 30 103 C31.093125 102.95875 32.18625 102.9175 33.3125 102.875 C37 103 37 103 40 105 C26.8 105 13.6 105 0 105 C0.99 104.01 0.99 104.01 2 103 C4.31 103 6.62 103 9 103 C9 69.34 9 35.68 9 1 C6.03 1 3.06 1 0 1 C0 0.67 0 0.34 0 0 Z " fill="#F7F7F7" transform="translate(68,72)"/>
<path d="M0 0 C10.92877855 -0.84500865 17.87363898 1.47376678 26.375 8.3125 C31.52165291 13.14660313 34.15151156 17.88865777 34.5 25 C34.21868669 30.91665416 32.46329721 35.42579605 28.3515625 39.72265625 C23.30345819 44.20863541 18.83356499 47.20539942 12 48 C12 48.66 12 49.32 12 50 C12.92619141 50.23783203 12.92619141 50.23783203 13.87109375 50.48046875 C24.63365595 53.4454973 32.39728451 57.75303154 39 67 C42.23708407 73.49518816 41.88098511 80.89064079 39.9375 87.75 C34.26617144 97.26319629 27.82001953 101.94413674 17 105 C12.60521368 105.4250102 8.39422778 105.39416661 4 105 C6 103 6 103 9.375 101.8125 C13.86367343 99.97962501 15.02356791 97.33294727 17 93 C18.53354262 88.02986685 18.26398819 82.9051883 18.3125 77.75 C18.35600586 76.23212891 18.35600586 76.23212891 18.40039062 74.68359375 C18.46049597 67.55417532 17.52952049 61.89554947 12.62280273 56.47998047 C9.39648891 53.56131026 6.17268785 52.09284682 2 51 C3.24251733 47.27244802 5.20751579 45.72599649 8 43 C12.97642633 37.47063741 13.4066879 30.91643602 13.25 23.77734375 C12.57743416 16.30555757 9.94425911 11.4787736 5 6 C5 5.34 5 4.68 5 4 C4.360625 3.71125 3.72125 3.4225 3.0625 3.125 C1 2 1 2 0 0 Z " fill="#F6F5F6" transform="translate(144,72)"/>
<path d="M0 0 C9.24 0 18.48 0 28 0 C28 7.92 28 15.84 28 24 C24 19 24 19 22.5625 15.9375 C18.35972075 8.03627501 7.97936423 4.22570044 0 1 C0 0.67 0 0.34 0 0 Z " fill="#EFEFF0" transform="translate(111,72)"/>
<path d="M0 0 C0.66 0 1.32 0 2 0 C2 10.89 2 21.78 2 33 C1.34 33 0.68 33 0 33 C-0.20753906 32.33613281 -0.41507813 31.67226562 -0.62890625 30.98828125 C-2.9398568 24.36484558 -5.05829999 21.65643077 -11 18 C-11 17.34 -11 16.68 -11 16 C-10.278125 15.67 -9.55625 15.34 -8.8125 15 C-3.90060953 11.50710011 -1.86924805 5.60774414 0 0 Z " fill="#DADBDD" transform="translate(113,104)"/>
<path d="M0 0 C0.33 0.99 0.66 1.98 1 3 C3.64 2.67 6.28 2.34 9 2 C6.33610311 4.66389689 4.59676491 4.98142077 0.86328125 5.09765625 C-0.30847656 5.08605469 -1.48023438 5.07445312 -2.6875 5.0625 C-4.45673828 5.04896484 -4.45673828 5.04896484 -6.26171875 5.03515625 C-7.16535156 5.02355469 -8.06898438 5.01195312 -9 5 C-6.3534665 2.3534665 -3.43778736 1.40058003 0 0 Z " fill="#C1C0C2" transform="translate(157,172)"/>
<path d="M0 0 C1.9375 0.8125 1.9375 0.8125 4 2 C4.33 2.99 4.66 3.98 5 5 C4.34 5.66 3.68 6.32 3 7 C2.01 6.67 1.02 6.34 0 6 C-0.38218767 4.34385343 -0.71395102 2.67542976 -1 1 C-0.67 0.67 -0.34 0.34 0 0 Z " fill="#292B2C" transform="translate(105,124)"/>
<path d="M0 0 C0 1.32 0 2.64 0 4 C1.32 4.33 2.64 4.66 4 5 C3.01 5.495 3.01 5.495 2 6 C-0.35981813 5.06421005 -2.69631264 4.06652192 -5 3 C-5 2.34 -5 1.68 -5 1 C-3 0 -3 0 0 0 Z " fill="#515151" transform="translate(161,119)"/>
<path d="M0 0 C0.66 0 1.32 0 2 0 C2 0.66 2 1.32 2 2 C2.66 2.33 3.32 2.66 4 3 C3.67 4.65 3.34 6.3 3 8 C1.35 6.68 -0.3 5.36 -2 4 C-1.34 3.34 -0.68 2.68 0 2 C0 1.34 0 0.68 0 0 Z " fill="#D7D7D7" transform="translate(154,120)"/>
</svg>
