<?xml version="1.0" encoding="UTF-8"?>
<svg version="1.1" xmlns="http://www.w3.org/2000/svg" width="240" height="240">
<path d="M0 0 C5.06793834 -0.04992286 10.13572942 -0.08596378 15.20385742 -0.10986328 C16.92328387 -0.1198403 18.64269372 -0.13342675 20.36206055 -0.15087891 C50.1986828 -0.4458615 50.1986828 -0.4458615 59.62890625 8.5546875 C60.81943269 9.98331923 61.91598852 11.4889537 63 13 C63.556875 13.515625 64.11375 14.03125 64.6875 14.5625 C69.02000684 19.30762654 68.79296323 26.19842514 68.55859375 32.26171875 C67.65110225 38.33493112 64.81993463 41.40191505 60 45 C56.43363749 47.24358323 52.81402751 49.2121746 49 51 C50.41152344 51.67095703 50.41152344 51.67095703 51.8515625 52.35546875 C53.10958875 52.96570537 54.36738929 53.57640747 55.625 54.1875 C56.24246094 54.47947266 56.85992187 54.77144531 57.49609375 55.07226562 C63.85352723 58.18406201 68.71618442 61.79075827 72.3125 68.0625 C72.80363281 68.89910156 73.29476562 69.73570312 73.80078125 70.59765625 C76.69803712 76.4016053 76.6819194 82.23036348 74.9375 88.4375 C72.53328877 95.02099429 68.21611693 100.10399478 62 103.375 C54.10808833 106.78731229 46.51578736 107.51338358 38 108 C38 107.01 38 106.02 38 105 C39.0725 104.773125 40.145 104.54625 41.25 104.3125 C45.58579037 102.79497337 46.76638117 101.97087792 49 98 C52.92180071 86.99654772 52.27891552 72.06633988 49 61 C48.34 61 47.68 61 47 61 C46.46375 60.236875 45.9275 59.47375 45.375 58.6875 C42.21066521 55.10680536 39.51714241 54.43042843 35 53 C35 52.01 35 51.02 35 50 C35.721875 49.62875 36.44375 49.2575 37.1875 48.875 C41.62620096 45.91586603 43.99398201 41.13339362 45.61328125 36.08984375 C47.49985898 25.89470147 45.83500494 17.58924085 40 9 C39.01 8.34 38.02 7.68 37 7 C37 6.34 37 5.68 37 5 C35.02 5 33.04 5 31 5 C30.67 12.59 30.34 20.18 30 28 C29.01 27.67 28.02 27.34 27 27 C26.2141568 25.29733972 25.43657842 23.58880348 24.75 21.84375 C21.74829891 14.46456816 17.65294467 11.59862826 10.5625 8.4375 C9.23029282 7.83241844 7.89825662 7.22696027 6.56640625 6.62109375 C5.38949219 6.08613281 4.21257812 5.55117187 3 5 C1.66204904 4.34264968 0.32579017 3.68154431 -1 3 C-0.67 2.01 -0.34 1.02 0 0 Z " fill="#E6E6E6" transform="translate(110,70)"/>
<path d="M0 0 C2.2442504 4.4885008 1.4550867 10.56251939 1.625 15.5 C1.70234375 17.36398438 1.70234375 17.36398438 1.78125 19.265625 C2.03269377 26.27646887 1.9614322 33.04530307 1 40 C0.34 40 -0.32 40 -1 40 C-1.12375 40.8353125 -1.12375 40.8353125 -1.25 41.6875 C-2.23895541 44.73677919 -3.84757466 46.65189963 -6 49 C-6.66 49 -7.32 49 -8 49 C-8 49.66 -8 50.32 -8 51 C-6.35 51.66 -4.7 52.32 -3 53 C-3 53.66 -3 54.32 -3 55 C-2.34 55.66 -1.68 56.32 -1 57 C-1 57.99 -1 58.98 -1 60 C-0.34 60.33 0.32 60.66 1 61 C1.48783241 63.81256464 1.84969951 66.53994252 2.125 69.375 C2.25128784 70.60911621 2.25128784 70.60911621 2.38012695 71.86816406 C3.43070883 82.69543751 2.88562961 93.16685205 2 104 C4.97 104 7.94 104 11 104 C11.33 104.99 11.66 105.98 12 107 C-1.86 107 -15.72 107 -30 107 C-30 106.01 -30 105.02 -30 104 C-27.03 104 -24.06 104 -21 104 C-21 70.67 -21 37.34 -21 3 C-23.97 3.66 -26.94 4.32 -30 5 C-25.20701108 0.04724479 -22.00531709 -0.26158104 -15.25 -0.625 C-14.45078125 -0.6765625 -13.6515625 -0.728125 -12.828125 -0.78125 C-8.4171809 -1.02791464 -4.31933079 -1.1273725 0 0 Z " fill="#FAFAFA" transform="translate(97,71)"/>
<path d="M0 0 C2.2442504 4.4885008 1.4550867 10.56251939 1.625 15.5 C1.70234375 17.36398438 1.70234375 17.36398438 1.78125 19.265625 C2.03269377 26.27646887 1.9614322 33.04530307 1 40 C0.34 40 -0.32 40 -1 40 C-1.33 40.99 -1.66 41.98 -2 43 C-1.95456055 41.98184204 -1.95456055 41.98184204 -1.90820312 40.94311523 C-1.35113197 28.28581587 -0.86662945 15.67020204 -1 3 C-6.94 3 -12.88 3 -19 3 C-19.33 36.66 -19.66 70.32 -20 105 C-10.1 104.505 -10.1 104.505 0 104 C-0.33 89.48 -0.66 74.96 -1 60 C-0.34 60.33 0.32 60.66 1 61 C1.48783241 63.81256464 1.84969951 66.53994252 2.125 69.375 C2.25128784 70.60911621 2.25128784 70.60911621 2.38012695 71.86816406 C3.43070883 82.69543751 2.88562961 93.16685205 2 104 C4.97 104 7.94 104 11 104 C11.33 104.99 11.66 105.98 12 107 C-1.86 107 -15.72 107 -30 107 C-30 106.01 -30 105.02 -30 104 C-27.03 104 -24.06 104 -21 104 C-21 70.67 -21 37.34 -21 3 C-23.97 3.66 -26.94 4.32 -30 5 C-25.20701108 0.04724479 -22.00531709 -0.26158104 -15.25 -0.625 C-14.45078125 -0.6765625 -13.6515625 -0.728125 -12.828125 -0.78125 C-8.4171809 -1.02791464 -4.31933079 -1.1273725 0 0 Z " fill="#727273" transform="translate(97,71)"/>
<path d="M0 0 C5.06793834 -0.04992286 10.13572942 -0.08596378 15.20385742 -0.10986328 C16.92328387 -0.1198403 18.64269372 -0.13342675 20.36206055 -0.15087891 C29.76691171 -0.24386086 38.8045961 -0.29982328 48 2 C44.68196072 2.91585285 42.18329961 2.96907495 38.75 2.5625 C37.85796875 2.46066406 36.9659375 2.35882813 36.046875 2.25390625 C35.37140625 2.17011719 34.6959375 2.08632812 34 2 C34 2.99 34 3.98 34 5 C33.01 5 32.02 5 31 5 C30.67 12.59 30.34 20.18 30 28 C29.01 27.67 28.02 27.34 27 27 C26.2141568 25.29733972 25.43657842 23.58880348 24.75 21.84375 C21.74829891 14.46456816 17.65294467 11.59862826 10.5625 8.4375 C9.23029282 7.83241844 7.89825662 7.22696027 6.56640625 6.62109375 C5.38949219 6.08613281 4.21257812 5.55117187 3 5 C1.66204904 4.34264968 0.32579017 3.68154431 -1 3 C-0.67 2.01 -0.34 1.02 0 0 Z " fill="#E4E4E5" transform="translate(110,70)"/>
<path d="M0 0 C0.66 0 1.32 0 2 0 C2 11.55 2 23.1 2 35 C1.34 35 0.68 35 0 35 C-0.23074219 34.40832031 -0.46148437 33.81664062 -0.69921875 33.20703125 C-3.00027264 27.63175049 -5.33983711 22.83008145 -11 20 C-11 19.01 -11 18.02 -11 17 C-10.278125 16.46375 -9.55625 15.9275 -8.8125 15.375 C-4.14853625 11.43654172 -1.24990118 5.97778825 0 0 Z " fill="#DEE0E1" transform="translate(113,103)"/>
<path d="M0 0 C2.2442504 4.4885008 1.4550867 10.56251939 1.625 15.5 C1.70234375 17.36398438 1.70234375 17.36398438 1.78125 19.265625 C2.03269377 26.27646887 1.9614322 33.04530307 1 40 C0.34 40 -0.32 40 -1 40 C-1.33 40.99 -1.66 41.98 -2 43 C-1.95456055 41.98184204 -1.95456055 41.98184204 -1.90820312 40.94311523 C-1.35134182 28.29058381 -0.81463581 15.66655316 -1 3 C-2.30195312 3.01160156 -3.60390625 3.02320312 -4.9453125 3.03515625 C-6.67187356 3.04453973 -8.39843618 3.05363934 -10.125 3.0625 C-10.9809375 3.07087891 -11.836875 3.07925781 -12.71875 3.08789062 C-17.26678411 3.10538306 -21.52383164 2.93192358 -26 2 C-22.95673079 -1.04326921 -19.34460317 -0.50933293 -15.25 -0.6875 C-14.05117187 -0.75807617 -14.05117187 -0.75807617 -12.828125 -0.83007812 C-8.42598862 -1.05090898 -4.30725477 -1.11744817 0 0 Z " fill="#99999A" transform="translate(97,71)"/>
<path d="M0 0 C5.06793834 -0.04992286 10.13572942 -0.08596378 15.20385742 -0.10986328 C16.92328387 -0.1198403 18.64269372 -0.13342675 20.36206055 -0.15087891 C29.76691171 -0.24386086 38.8045961 -0.29982328 48 2 C44.68196072 2.91585285 42.18329961 2.96907495 38.75 2.5625 C37.85796875 2.46066406 36.9659375 2.35882813 36.046875 2.25390625 C35.37140625 2.17011719 34.6959375 2.08632812 34 2 C34 2.99 34 3.98 34 5 C33.01 5 32.02 5 31 5 C30.67 12.59 30.34 20.18 30 28 C29.01 27.67 28.02 27.34 27 27 C27.33 26.01 27.66 25.02 28 24 C28.14777936 22.30132812 28.24747066 20.59822511 28.31640625 18.89453125 C28.35830078 17.91162109 28.40019531 16.92871094 28.44335938 15.91601562 C28.48267578 14.89185547 28.52199219 13.86769531 28.5625 12.8125 C28.60568359 11.77673828 28.64886719 10.74097656 28.69335938 9.67382812 C28.79944366 7.1160181 28.90150146 4.55811155 29 2 C28.19780029 2.03029297 27.39560059 2.06058594 26.5690918 2.09179688 C22.94191607 2.22844336 19.31470871 2.36423194 15.6875 2.5 C14.42486328 2.54769531 13.16222656 2.59539062 11.86132812 2.64453125 C10.65283203 2.68964844 9.44433594 2.73476562 8.19921875 2.78125 C6.52605591 2.8440918 6.52605591 2.8440918 4.8190918 2.90820312 C2.88018086 2.97133905 0.9399386 3 -1 3 C-0.67 2.01 -0.34 1.02 0 0 Z " fill="#535355" transform="translate(110,70)"/>
<path d="M0 0 C0.99 0.495 0.99 0.495 2 1 C2.48783241 3.81256464 2.84969951 6.53994252 3.125 9.375 C3.20919189 10.19774414 3.29338379 11.02048828 3.38012695 11.86816406 C4.43070883 22.69543751 3.88562961 33.16685205 3 44 C2.34 44 1.68 44 1 44 C0.67 29.48 0.34 14.96 0 0 Z " fill="#787979" transform="translate(96,131)"/>
<path d="M0 0 C0.66 0 1.32 0 2 0 C2 11.55 2 23.1 2 35 C1.34 35 0.68 35 0 35 C0.33 26.42 0.66 17.84 1 9 C-0.98 10.32 -2.96 11.64 -5 13 C-3.58192622 8.52761347 -1.88695626 4.28853694 0 0 Z " fill="#8C8E8F" transform="translate(113,103)"/>
<path d="M0 0 C0.98120464 3.05263664 0.98120464 4.94736336 0 8 C-0.66 8 -1.32 8 -2 8 C-1.67 8.99 -1.34 9.98 -1 11 C-2.65 11.66 -4.3 12.32 -6 13 C-6 14.32 -6 15.64 -6 17 C-5.01 17.33 -4.02 17.66 -3 18 C-5 19 -5 19 -8.125 18.0625 C-9.548125 17.5365625 -9.548125 17.5365625 -11 17 C-11 16.01 -11 15.02 -11 14 C-10.278125 13.62875 -9.55625 13.2575 -8.8125 12.875 C-4.71291167 10.14194111 -3.1415185 6.34069326 -1 2 C-0.67 1.34 -0.34 0.68 0 0 Z " fill="#999A9B" transform="translate(156,106)"/>
<path d="M0 0 C5.61 0 11.22 0 17 0 C12.9566353 2.02168235 10.67870655 2.35927761 6.25 2.625 C5.07953125 2.69976562 3.9090625 2.77453125 2.703125 2.8515625 C1.81109375 2.90054688 0.9190625 2.94953125 0 3 C0 2.01 0 1.02 0 0 Z " fill="#909091" transform="translate(148,175)"/>
<path d="M0 0 C4.62 0 9.24 0 14 0 C12 2 12 2 8.875 2.125 C7.92625 2.08375 6.9775 2.0425 6 2 C6.99 2.99 7.98 3.98 9 5 C2.25 3.375 2.25 3.375 0 0 Z " fill="#BDBDBF" transform="translate(111,72)"/>
<path d="M0 0 C4.29 0 8.58 0 13 0 C10.14426549 1.90382301 9.21887862 2.2957965 6 2.625 C5.319375 2.69976562 4.63875 2.77453125 3.9375 2.8515625 C2.29573423 2.97734294 0.64657692 3 -1 3 C-0.67 2.01 -0.34 1.02 0 0 Z " fill="#29292C" transform="translate(110,70)"/>
<path d="M0 0 C0.33 0 0.66 0 1 0 C1.375 2.75 1.375 2.75 1 6 C-2 8.375 -2 8.375 -5 10 C-3.85017555 6.10828647 -2.70784225 3.06103907 0 0 Z " fill="#ADACB1" transform="translate(113,106)"/>
<path d="M0 0 C2 2 2 2 2.125 5.125 C2.08375 6.07375 2.0425 7.0225 2 8 C0 7 0 7 -1.125 3.9375 C-1.41375 2.968125 -1.7025 1.99875 -2 1 C-1.34 0.67 -0.68 0.34 0 0 Z " fill="#C7C9CA" transform="translate(112,128)"/>
</svg>
